<?xml version="1.0" encoding="UTF-8"?>
<svg width="512" height="128" viewBox="0 0 512 128" fill="none" xmlns="http://www.w3.org/2000/svg" role="img" aria-labelledby="title desc">
  <title id="title">AIDS-LMS Wordmark</title>
  <desc id="desc">A modern green wordmark that reads AIDS-LMS with subtle tech corners.</desc>
  <defs>
    <linearGradient id="brandGrad" x1="0" y1="0" x2="512" y2="128" gradientUnits="userSpaceOnUse">
      <stop offset="0%" stop-color="#22C55E"/>
      <stop offset="100%" stop-color="#16A34A"/>
    </linearGradient>
    <filter id="softGlow" x="-20%" y="-20%" width="140%" height="140%">
      <feDropShadow dx="0" dy="0" stdDeviation="3" flood-color="#22C55E" flood-opacity="0.3"/>
    </filter>
  </defs>

  <rect x="2" y="2" width="508" height="124" rx="14" fill="#0f1412" stroke="#2a3330"/>

  <g fill="url(#brandGrad)" filter="url(#softGlow)">
    <path d="M64 94 L92 34 H104 L132 94 H120 L112 76 H84 L76 94 H64 Z M88 66 H108 L98 44 L88 66 Z"/>
    <path d="M146 34 H156 V94 H146 V34 Z M146 26 H156 V34 H146 V26 Z"/>

    <path d="M188 94 V34 H236 C252 34 264 46 264 62 V66 C264 82 252 94 236 94 H188 Z M200 46 V82 H236 C245 82 252 75 252 66 V62 C252 53 245 46 236 46 H200 Z"/>
    <path d="M280 34 H328 V46 H292 V58 H324 V70 H292 V82 H328 V94 H280 V34 Z"/>
    <path d="M340 34 H352 L380 70 L408 34 H420 V94 H408 V56 L380 92 L352 56 V94 H340 V34 Z"/>
    <path d="M432 34 H480 V46 H444 V58 H476 V70 H444 V82 H480 V94 H432 V34 Z"/>
  </g>
</svg>
