<?xml version="1.0" encoding="UTF-8"?>
<svg width="256" height="256" viewBox="0 0 256 256" fill="none" xmlns="http://www.w3.org/2000/svg" role="img" aria-labelledby="title desc">
  <title id="title">AIDS-LMS Logo</title>
  <desc id="desc">A minimalist green emblem combining an A and E with data nodes for AIDS-LMS.</desc>
  <defs>
    <linearGradient id="brandGrad" x1="0" y1="0" x2="256" y2="256" gradientUnits="userSpaceOnUse">
      <stop offset="0%" stop-color="#22C55E"/>
      <stop offset="100%" stop-color="#16A34A"/>
    </linearGradient>
    <filter id="glow" x="-20%" y="-20%" width="140%" height="140%">
      <feDropShadow dx="0" dy="0" stdDeviation="4" flood-color="#22C55E" flood-opacity="0.35"/>
    </filter>
  </defs>

  <!-- Outer ring -->
  <circle cx="128" cy="128" r="108" stroke="url(#brandGrad)" stroke-width="10" opacity="0.5"/>

  <!-- Data nodes -->
  <g fill="#22C55E" opacity="0.9">
    <circle cx="60" cy="88" r="4"/>
    <circle cx="200" cy="72" r="4"/>
    <circle cx="212" cy="150" r="4"/>
    <circle cx="84" cy="196" r="4"/>
  </g>

  <!-- Connecting lines -->
  <g stroke="url(#brandGrad)" stroke-width="3" stroke-linecap="round" opacity="0.6">
    <path d="M60 88 L128 128"/>
    <path d="M200 72 L156 112"/>
    <path d="M212 150 L170 150"/>
    <path d="M84 196 L120 160"/>
  </g>

  <!-- Stylized A -->
  <g stroke="url(#brandGrad)" stroke-width="12" stroke-linecap="round" stroke-linejoin="round" filter="url(#glow)">
    <path d="M86 182 L128 76 L170 182"/>
    <path d="M104 142 H152"/>
  </g>

  <!-- Stylized E -->
  <g stroke="url(#brandGrad)" stroke-width="12" stroke-linecap="round" stroke-linejoin="round" filter="url(#glow)">
    <path d="M176 92 H132"/>
    <path d="M176 142 H132"/>
    <path d="M176 192 H132"/>
    <path d="M132 86 V198" opacity="0.85"/>
  </g>
</svg>
