<?xml version="1.0" encoding="UTF-8" standalone="no"?>
<!DOCTYPE svg PUBLIC "-//W3C//DTD SVG 1.1//EN"
 "http://www.w3.org/Graphics/SVG/1.1/DTD/svg11.dtd">
<!-- Generated by graphviz version 2.43.0 (0)
 -->
<!-- Title: LecturerActivityUpdated Pages: 1 -->
<svg width="1520pt" height="596pt"
 viewBox="0.00 0.00 1519.82 596.00" xmlns="http://www.w3.org/2000/svg" xmlns:xlink="http://www.w3.org/1999/xlink">
<g id="graph0" class="graph" transform="scale(1 1) rotate(0) translate(4 592)">
<title>LecturerActivityUpdated</title>
<polygon fill="white" stroke="transparent" points="-4,4 -4,-592 1515.82,-592 1515.82,4 -4,4"/>
<text text-anchor="middle" x="755.91" y="-574.4" font-family="Times,serif" font-size="12.00">Activity Diagram – Lecturer (Main Flow, Ortho Layout • Updated)</text>
<g id="clust2" class="cluster">
<title>cluster_system</title>
<path fill="none" stroke="#a7d3ff" d="M775.82,-89C775.82,-89 976.82,-89 976.82,-89 982.82,-89 988.82,-95 988.82,-101 988.82,-101 988.82,-308 988.82,-308 988.82,-314 982.82,-320 976.82,-320 976.82,-320 775.82,-320 775.82,-320 769.82,-320 763.82,-314 763.82,-308 763.82,-308 763.82,-101 763.82,-101 763.82,-95 769.82,-89 775.82,-89"/>
<text text-anchor="middle" x="876.32" y="-306.4" font-family="Times,serif" font-size="12.00">System (Hệ thống)</text>
</g>
<g id="clust1" class="cluster">
<title>cluster_lecturer</title>
<path fill="none" stroke="#d3d3d3" d="M81,-328C81,-328 1422.82,-328 1422.82,-328 1428.82,-328 1434.82,-334 1434.82,-340 1434.82,-340 1434.82,-547 1434.82,-547 1434.82,-553 1428.82,-559 1422.82,-559 1422.82,-559 81,-559 81,-559 75,-559 69,-553 69,-547 69,-547 69,-340 69,-340 69,-334 75,-328 81,-328"/>
<text text-anchor="middle" x="751.91" y="-545.4" font-family="Times,serif" font-size="12.00">Lecturer</text>
</g>
<g id="clust3" class="cluster">
<title>cluster_staff</title>
<path fill="none" stroke="#f4c2ff" d="M413.41,-8C413.41,-8 965.32,-8 965.32,-8 971.32,-8 977.32,-14 977.32,-20 977.32,-20 977.32,-69 977.32,-69 977.32,-75 971.32,-81 965.32,-81 965.32,-81 413.41,-81 413.41,-81 407.41,-81 401.41,-75 401.41,-69 401.41,-69 401.41,-20 401.41,-20 401.41,-14 407.41,-8 413.41,-8"/>
<text text-anchor="middle" x="689.36" y="-67.4" font-family="Times,serif" font-size="12.00">Staff</text>
</g>
<g id="clust4" class="cluster">
<title>cluster_student</title>
<path fill="none" stroke="#fff3a6" d="M1043.82,-8C1043.82,-8 1385.82,-8 1385.82,-8 1391.82,-8 1397.82,-14 1397.82,-20 1397.82,-20 1397.82,-148 1397.82,-148 1397.82,-154 1391.82,-160 1385.82,-160 1385.82,-160 1043.82,-160 1043.82,-160 1037.82,-160 1031.82,-154 1031.82,-148 1031.82,-148 1031.82,-20 1031.82,-20 1031.82,-14 1037.82,-8 1043.82,-8"/>
<text text-anchor="middle" x="1214.82" y="-146.4" font-family="Times,serif" font-size="12.00">Student</text>
</g>
<!-- Start -->
<g id="node1" class="node">
<title>Start</title>
<ellipse fill="lightgrey" stroke="black" cx="9" cy="-433" rx="9" ry="9"/>
</g>
<!-- L1 -->
<g id="node3" class="node">
<title>L1</title>
<path fill="none" stroke="black" d="M246.5,-451C246.5,-451 141.5,-451 141.5,-451 135.5,-451 129.5,-445 129.5,-439 129.5,-439 129.5,-427 129.5,-427 129.5,-421 135.5,-415 141.5,-415 141.5,-415 246.5,-415 246.5,-415 252.5,-415 258.5,-421 258.5,-427 258.5,-427 258.5,-439 258.5,-439 258.5,-445 252.5,-451 246.5,-451"/>
<text text-anchor="middle" x="194" y="-430.2" font-family="Times,serif" font-size="11.00">Đăng nhập hệ thống</text>
</g>
<!-- Start&#45;&gt;L1 -->
<g id="edge1" class="edge">
<title>Start&#45;&gt;L1</title>
<path fill="none" stroke="black" d="M18.17,-433C18.17,-433 119.19,-433 119.19,-433"/>
<polygon fill="black" stroke="black" points="119.19,-436.5 129.19,-433 119.19,-429.5 119.19,-436.5"/>
</g>
<!-- End -->
<g id="node2" class="node">
<title>End</title>
<ellipse fill="lightgrey" stroke="black" cx="1498.82" cy="-449" rx="9" ry="9"/>
<ellipse fill="none" stroke="black" cx="1498.82" cy="-449" rx="13" ry="13"/>
</g>
<!-- L2 -->
<g id="node4" class="node">
<title>L2</title>
<path fill="none" stroke="black" d="M518.91,-372C518.91,-372 460.91,-372 460.91,-372 454.91,-372 448.91,-366 448.91,-360 448.91,-360 448.91,-348 448.91,-348 448.91,-342 454.91,-336 460.91,-336 460.91,-336 518.91,-336 518.91,-336 524.91,-336 530.91,-342 530.91,-348 530.91,-348 530.91,-360 530.91,-360 530.91,-366 524.91,-372 518.91,-372"/>
<text text-anchor="middle" x="489.91" y="-351.2" font-family="Times,serif" font-size="11.00">Tạo lớp học</text>
</g>
<!-- L1&#45;&gt;L2 -->
<g id="edge2" class="edge">
<title>L1&#45;&gt;L2</title>
<path fill="none" stroke="black" d="M258.69,-433C301.89,-433 350.82,-433 350.82,-433 350.82,-433 350.82,-360 350.82,-360 350.82,-360 438.55,-360 438.55,-360"/>
<polygon fill="black" stroke="black" points="438.55,-363.5 448.55,-360 438.55,-356.5 438.55,-363.5"/>
</g>
<!-- S1 -->
<g id="node13" class="node">
<title>S1</title>
<path fill="none" stroke="black" d="M968.82,-291C968.82,-291 783.82,-291 783.82,-291 777.82,-291 771.82,-285 771.82,-279 771.82,-279 771.82,-267 771.82,-267 771.82,-261 777.82,-255 783.82,-255 783.82,-255 968.82,-255 968.82,-255 974.82,-255 980.82,-261 980.82,-267 980.82,-267 980.82,-279 980.82,-279 980.82,-285 974.82,-291 968.82,-291"/>
<text text-anchor="middle" x="876.32" y="-276.2" font-family="Times,serif" font-size="11.00">TẠO LỚP TRONG HỆ THỐNG</text>
<text text-anchor="middle" x="876.32" y="-264.2" font-family="Times,serif" font-size="11.00">&amp; phát sinh mã/lời mời (nếu dùng)</text>
</g>
<!-- L2&#45;&gt;S1 -->
<g id="edge3" class="edge">
<title>L2&#45;&gt;S1</title>
<path fill="none" stroke="black" d="M531.02,-340C612.74,-340 787.82,-340 787.82,-340 787.82,-340 787.82,-301.31 787.82,-301.31"/>
<polygon fill="black" stroke="black" points="791.32,-301.31 787.82,-291.31 784.32,-301.31 791.32,-301.31"/>
</g>
<!-- L3 -->
<g id="node5" class="node">
<title>L3</title>
<path fill="none" stroke="black" d="M299,-372C299,-372 89,-372 89,-372 83,-372 77,-366 77,-360 77,-360 77,-348 77,-348 77,-342 83,-336 89,-336 89,-336 299,-336 299,-336 305,-336 311,-342 311,-348 311,-348 311,-360 311,-360 311,-366 305,-372 299,-372"/>
<text text-anchor="middle" x="194" y="-357.2" font-family="Times,serif" font-size="11.00">Import danh sách SV</text>
<text text-anchor="middle" x="194" y="-345.2" font-family="Times,serif" font-size="11.00">(gửi yêu cầu Staff cấp tài khoản/email)</text>
</g>
<!-- F1 -->
<g id="node16" class="node">
<title>F1</title>
<path fill="none" stroke="black" d="M558.41,-52C558.41,-52 421.41,-52 421.41,-52 415.41,-52 409.41,-46 409.41,-40 409.41,-40 409.41,-28 409.41,-28 409.41,-22 415.41,-16 421.41,-16 421.41,-16 558.41,-16 558.41,-16 564.41,-16 570.41,-22 570.41,-28 570.41,-28 570.41,-40 570.41,-40 570.41,-46 564.41,-52 558.41,-52"/>
<text text-anchor="middle" x="489.91" y="-31.2" font-family="Times,serif" font-size="11.00">Nhận yêu cầu từ Lecturer</text>
</g>
<!-- L3&#45;&gt;F1 -->
<g id="edge5" class="edge">
<title>L3&#45;&gt;F1</title>
<path fill="none" stroke="black" d="M311.22,-348C370.4,-348 429.82,-348 429.82,-348 429.82,-348 429.82,-62.24 429.82,-62.24"/>
<polygon fill="black" stroke="black" points="433.32,-62.24 429.82,-52.24 426.32,-62.24 433.32,-62.24"/>
</g>
<!-- L4 -->
<g id="node6" class="node">
<title>L4</title>
<path fill="none" stroke="black" d="M926.82,-380C926.82,-380 825.82,-380 825.82,-380 819.82,-380 813.82,-374 813.82,-368 813.82,-368 813.82,-356 813.82,-356 813.82,-350 819.82,-344 825.82,-344 825.82,-344 926.82,-344 926.82,-344 932.82,-344 938.82,-350 938.82,-356 938.82,-356 938.82,-368 938.82,-368 938.82,-374 932.82,-380 926.82,-380"/>
<text text-anchor="middle" x="876.32" y="-365.2" font-family="Times,serif" font-size="11.00">Tạo bài tập/dự án</text>
<text text-anchor="middle" x="876.32" y="-353.2" font-family="Times,serif" font-size="11.00">+ thiết lập hạn nộp</text>
</g>
<!-- S3 -->
<g id="node15" class="node">
<title>S3</title>
<path fill="none" stroke="black" d="M945.82,-133C945.82,-133 806.82,-133 806.82,-133 800.82,-133 794.82,-127 794.82,-121 794.82,-121 794.82,-109 794.82,-109 794.82,-103 800.82,-97 806.82,-97 806.82,-97 945.82,-97 945.82,-97 951.82,-97 957.82,-103 957.82,-109 957.82,-109 957.82,-121 957.82,-121 957.82,-127 951.82,-133 945.82,-133"/>
<text text-anchor="middle" x="876.32" y="-118.2" font-family="Times,serif" font-size="11.00">Gửi THÔNG BÁO lớp</text>
<text text-anchor="middle" x="876.32" y="-106.2" font-family="Times,serif" font-size="11.00">(function thông báo riêng)</text>
</g>
<!-- L4&#45;&gt;S3 -->
<g id="edge8" class="edge">
<title>L4&#45;&gt;S3</title>
<path fill="none" stroke="black" d="M938.84,-362C973.97,-362 1010.82,-362 1010.82,-362 1010.82,-362 1010.82,-119.67 1010.82,-119.67 1010.82,-119.67 968.05,-119.67 968.05,-119.67"/>
<polygon fill="black" stroke="black" points="968.05,-116.17 958.05,-119.67 968.05,-123.17 968.05,-116.17"/>
</g>
<!-- L5 -->
<g id="node7" class="node">
<title>L5</title>
<path fill="none" stroke="black" d="M248,-530C248,-530 140,-530 140,-530 134,-530 128,-524 128,-518 128,-518 128,-506 128,-506 128,-500 134,-494 140,-494 140,-494 248,-494 248,-494 254,-494 260,-500 260,-506 260,-506 260,-518 260,-518 260,-524 254,-530 248,-530"/>
<text text-anchor="middle" x="194" y="-515.2" font-family="Times,serif" font-size="11.00">Theo dõi tiến độ nộp</text>
<text text-anchor="middle" x="194" y="-503.2" font-family="Times,serif" font-size="11.00">(Dashboard)</text>
</g>
<!-- D1 -->
<g id="node8" class="node">
<title>D1</title>
<polygon fill="none" stroke="black" points="489.91,-451 370.09,-433 489.91,-415 609.73,-433 489.91,-451"/>
<text text-anchor="middle" x="489.91" y="-430.2" font-family="Times,serif" font-size="11.00">Cần gia hạn deadline?</text>
</g>
<!-- L5&#45;&gt;D1 -->
<g id="edge13" class="edge">
<title>L5&#45;&gt;D1</title>
<path fill="none" stroke="black" d="M260.23,-512C316.71,-512 388.82,-512 388.82,-512 388.82,-512 388.82,-446 388.82,-446"/>
<polygon fill="black" stroke="black" points="392.32,-446 388.82,-436 385.32,-446 392.32,-446"/>
</g>
<!-- LChat -->
<g id="node12" class="node">
<title>LChat</title>
<polygon fill="none" stroke="black" stroke-dasharray="5,2" points="572.41,-530 407.41,-530 407.41,-494 572.41,-494 572.41,-530"/>
<text text-anchor="middle" x="489.91" y="-515.2" font-family="Times,serif" font-size="11.00">Chat trực tiếp</text>
<text text-anchor="middle" x="489.91" y="-503.2" font-family="Times,serif" font-size="11.00">(Lecturer ↔ Student/User)</text>
</g>
<!-- L5&#45;&gt;LChat -->
<g id="edge19" class="edge">
<title>L5&#45;&gt;LChat</title>
<path fill="none" stroke="black" stroke-dasharray="5,2" d="M270.04,-521C270.04,-521 397.41,-521 397.41,-521"/>
<polygon fill="black" stroke="black" points="397.41,-524.5 407.41,-521 397.41,-517.5 397.41,-524.5"/>
<polygon fill="black" stroke="black" points="270.04,-517.5 260.04,-521 270.04,-524.5 270.04,-517.5"/>
</g>
<!-- D1&#45;&gt;L4 -->
<g id="edge15" class="edge">
<title>D1&#45;&gt;L4</title>
<path fill="none" stroke="black" d="M590.82,-429.94C590.82,-418.1 590.82,-376 590.82,-376 590.82,-376 803.66,-376 803.66,-376"/>
<polygon fill="black" stroke="black" points="803.66,-379.5 813.66,-376 803.66,-372.5 803.66,-379.5"/>
<text text-anchor="middle" x="690.82" y="-393" font-family="Times,serif" font-size="10.00">Có</text>
<text text-anchor="middle" x="690.82" y="-382" font-family="Times,serif" font-size="10.00">(Gia hạn/Chỉnh hạn)</text>
</g>
<!-- L6 -->
<g id="node9" class="node">
<title>L6</title>
<path fill="none" stroke="black" d="M937.32,-467C937.32,-467 815.32,-467 815.32,-467 809.32,-467 803.32,-461 803.32,-455 803.32,-455 803.32,-443 803.32,-443 803.32,-437 809.32,-431 815.32,-431 815.32,-431 937.32,-431 937.32,-431 943.32,-431 949.32,-437 949.32,-443 949.32,-443 949.32,-455 949.32,-455 949.32,-461 943.32,-467 937.32,-467"/>
<text text-anchor="middle" x="876.32" y="-446.2" font-family="Times,serif" font-size="11.00">Chấm điểm &amp; phản hồi</text>
</g>
<!-- D1&#45;&gt;L6 -->
<g id="edge14" class="edge">
<title>D1&#45;&gt;L6</title>
<path fill="none" stroke="black" d="M556.78,-441C556.78,-441 793.04,-441 793.04,-441"/>
<polygon fill="black" stroke="black" points="793.04,-444.5 803.04,-441 793.04,-437.5 793.04,-444.5"/>
<text text-anchor="middle" x="690.82" y="-452" font-family="Times,serif" font-size="10.00">Không</text>
</g>
<!-- L7 -->
<g id="node10" class="node">
<title>L7</title>
<path fill="none" stroke="black" d="M1185.82,-467C1185.82,-467 1060.82,-467 1060.82,-467 1054.82,-467 1048.82,-461 1048.82,-455 1048.82,-455 1048.82,-443 1048.82,-443 1048.82,-437 1054.82,-431 1060.82,-431 1060.82,-431 1185.82,-431 1185.82,-431 1191.82,-431 1197.82,-437 1197.82,-443 1197.82,-443 1197.82,-455 1197.82,-455 1197.82,-461 1191.82,-467 1185.82,-467"/>
<text text-anchor="middle" x="1123.32" y="-446.2" font-family="Times,serif" font-size="11.00">Tải/xuất dữ liệu quản lý</text>
</g>
<!-- L6&#45;&gt;L7 -->
<g id="edge16" class="edge">
<title>L6&#45;&gt;L7</title>
<path fill="none" stroke="black" d="M949.42,-449C949.42,-449 1038.69,-449 1038.69,-449"/>
<polygon fill="black" stroke="black" points="1038.69,-452.5 1048.69,-449 1038.69,-445.5 1038.69,-452.5"/>
</g>
<!-- L9 -->
<g id="node11" class="node">
<title>L9</title>
<path fill="none" stroke="black" d="M1414.82,-467C1414.82,-467 1277.82,-467 1277.82,-467 1271.82,-467 1265.82,-461 1265.82,-455 1265.82,-455 1265.82,-443 1265.82,-443 1265.82,-437 1271.82,-431 1277.82,-431 1277.82,-431 1414.82,-431 1414.82,-431 1420.82,-431 1426.82,-437 1426.82,-443 1426.82,-443 1426.82,-455 1426.82,-455 1426.82,-461 1420.82,-467 1414.82,-467"/>
<text text-anchor="middle" x="1346.32" y="-452.2" font-family="Times,serif" font-size="11.00">Kết thúc môn học</text>
<text text-anchor="middle" x="1346.32" y="-440.2" font-family="Times,serif" font-size="11.00">(tổng hợp điểm, khóa lớp)</text>
</g>
<!-- L7&#45;&gt;L9 -->
<g id="edge17" class="edge">
<title>L7&#45;&gt;L9</title>
<path fill="none" stroke="black" d="M1197.88,-449C1197.88,-449 1255.69,-449 1255.69,-449"/>
<polygon fill="black" stroke="black" points="1255.69,-452.5 1265.69,-449 1255.69,-445.5 1255.69,-452.5"/>
</g>
<!-- L9&#45;&gt;End -->
<g id="edge18" class="edge">
<title>L9&#45;&gt;End</title>
<path fill="none" stroke="black" d="M1427.03,-449C1427.03,-449 1475.75,-449 1475.75,-449"/>
<polygon fill="black" stroke="black" points="1475.75,-452.5 1485.75,-449 1475.75,-445.5 1475.75,-452.5"/>
</g>
<!-- S1&#45;&gt;L3 -->
<g id="edge4" class="edge">
<title>S1&#45;&gt;L3</title>
<path fill="none" stroke="black" d="M771.7,-273C580.66,-273 194.82,-273 194.82,-273 194.82,-273 194.82,-325.62 194.82,-325.62"/>
<polygon fill="black" stroke="black" points="191.32,-325.62 194.82,-335.62 198.32,-325.62 191.32,-325.62"/>
</g>
<!-- S2 -->
<g id="node14" class="node">
<title>S2</title>
<path fill="none" stroke="black" d="M961.32,-212C961.32,-212 791.32,-212 791.32,-212 785.32,-212 779.32,-206 779.32,-200 779.32,-200 779.32,-188 779.32,-188 779.32,-182 785.32,-176 791.32,-176 791.32,-176 961.32,-176 961.32,-176 967.32,-176 973.32,-182 973.32,-188 973.32,-188 973.32,-200 973.32,-200 973.32,-206 967.32,-212 961.32,-212"/>
<text text-anchor="middle" x="876.32" y="-197.2" font-family="Times,serif" font-size="11.00">Cập nhật trạng thái nộp</text>
<text text-anchor="middle" x="876.32" y="-185.2" font-family="Times,serif" font-size="11.00">(đã nộp/chờ chấm/đã chấm/sửa)</text>
</g>
<!-- S2&#45;&gt;L5 -->
<g id="edge12" class="edge">
<title>S2&#45;&gt;L5</title>
<path fill="none" stroke="black" d="M779.11,-194C622.28,-194 330.82,-194 330.82,-194 330.82,-194 330.82,-503 330.82,-503 330.82,-503 270,-503 270,-503"/>
<polygon fill="black" stroke="black" points="270,-499.5 260,-503 270,-506.5 270,-499.5"/>
</g>
<!-- St2 -->
<g id="node19" class="node">
<title>St2</title>
<path fill="none" stroke="black" d="M1194.82,-131C1194.82,-131 1051.82,-131 1051.82,-131 1045.82,-131 1039.82,-125 1039.82,-119 1039.82,-119 1039.82,-107 1039.82,-107 1039.82,-101 1045.82,-95 1051.82,-95 1051.82,-95 1194.82,-95 1194.82,-95 1200.82,-95 1206.82,-101 1206.82,-107 1206.82,-107 1206.82,-119 1206.82,-119 1206.82,-125 1200.82,-131 1194.82,-131"/>
<text text-anchor="middle" x="1123.32" y="-116.2" font-family="Times,serif" font-size="11.00">Nhận THÔNG BÁO bài tập</text>
<text text-anchor="middle" x="1123.32" y="-104.2" font-family="Times,serif" font-size="11.00">(kênh thông báo riêng)</text>
</g>
<!-- S3&#45;&gt;St2 -->
<g id="edge9" class="edge">
<title>S3&#45;&gt;St2</title>
<path fill="none" stroke="black" d="M957.88,-108.33C957.88,-108.33 1029.73,-108.33 1029.73,-108.33"/>
<polygon fill="black" stroke="black" points="1029.73,-111.83 1039.73,-108.33 1029.73,-104.83 1029.73,-111.83"/>
</g>
<!-- F2 -->
<g id="node17" class="node">
<title>F2</title>
<path fill="none" stroke="black" d="M957.32,-52C957.32,-52 795.32,-52 795.32,-52 789.32,-52 783.32,-46 783.32,-40 783.32,-40 783.32,-28 783.32,-28 783.32,-22 789.32,-16 795.32,-16 795.32,-16 957.32,-16 957.32,-16 963.32,-16 969.32,-22 969.32,-28 969.32,-28 969.32,-40 969.32,-40 969.32,-46 963.32,-52 957.32,-52"/>
<text text-anchor="middle" x="876.32" y="-31.2" font-family="Times,serif" font-size="11.00">Cấp tài khoản &amp; email cho SV</text>
</g>
<!-- F1&#45;&gt;F2 -->
<g id="edge6" class="edge">
<title>F1&#45;&gt;F2</title>
<path fill="none" stroke="black" d="M570.44,-34C570.44,-34 772.97,-34 772.97,-34"/>
<polygon fill="black" stroke="black" points="772.97,-37.5 782.97,-34 772.97,-30.5 772.97,-37.5"/>
</g>
<!-- St1 -->
<g id="node18" class="node">
<title>St1</title>
<path fill="none" stroke="black" d="M1169.32,-52C1169.32,-52 1077.32,-52 1077.32,-52 1071.32,-52 1065.32,-46 1065.32,-40 1065.32,-40 1065.32,-28 1065.32,-28 1065.32,-22 1071.32,-16 1077.32,-16 1077.32,-16 1169.32,-16 1169.32,-16 1175.32,-16 1181.32,-22 1181.32,-28 1181.32,-28 1181.32,-40 1181.32,-40 1181.32,-46 1175.32,-52 1169.32,-52"/>
<text text-anchor="middle" x="1123.32" y="-37.2" font-family="Times,serif" font-size="11.00">Tham gia lớp</text>
<text text-anchor="middle" x="1123.32" y="-25.2" font-family="Times,serif" font-size="11.00">(bằng mã/lời mời)</text>
</g>
<!-- F2&#45;&gt;St1 -->
<g id="edge7" class="edge">
<title>F2&#45;&gt;St1</title>
<path fill="none" stroke="black" d="M969.35,-34C969.35,-34 1055.1,-34 1055.1,-34"/>
<polygon fill="black" stroke="black" points="1055.1,-37.5 1065.1,-34 1055.1,-30.5 1055.1,-37.5"/>
</g>
<!-- St3 -->
<g id="node20" class="node">
<title>St3</title>
<path fill="none" stroke="black" d="M1377.82,-131C1377.82,-131 1314.82,-131 1314.82,-131 1308.82,-131 1302.82,-125 1302.82,-119 1302.82,-119 1302.82,-107 1302.82,-107 1302.82,-101 1308.82,-95 1314.82,-95 1314.82,-95 1377.82,-95 1377.82,-95 1383.82,-95 1389.82,-101 1389.82,-107 1389.82,-107 1389.82,-119 1389.82,-119 1389.82,-125 1383.82,-131 1377.82,-131"/>
<text text-anchor="middle" x="1346.32" y="-110.2" font-family="Times,serif" font-size="11.00">Nộp báo cáo</text>
</g>
<!-- St2&#45;&gt;St3 -->
<g id="edge10" class="edge">
<title>St2&#45;&gt;St3</title>
<path fill="none" stroke="black" d="M1206.99,-113C1206.99,-113 1292.57,-113 1292.57,-113"/>
<polygon fill="black" stroke="black" points="1292.57,-116.5 1302.57,-113 1292.57,-109.5 1292.57,-116.5"/>
</g>
<!-- St3&#45;&gt;S2 -->
<g id="edge11" class="edge">
<title>St3&#45;&gt;S2</title>
<path fill="none" stroke="black" d="M1346.82,-131.38C1346.82,-155.28 1346.82,-194 1346.82,-194 1346.82,-194 983.52,-194 983.52,-194"/>
<polygon fill="black" stroke="black" points="983.52,-190.5 973.52,-194 983.52,-197.5 983.52,-190.5"/>
</g>
</g>
</svg>
