<?xml version="1.0" encoding="UTF-8" standalone="no"?>
<!DOCTYPE svg PUBLIC "-//W3C//DTD SVG 1.1//EN"
 "http://www.w3.org/Graphics/SVG/1.1/DTD/svg11.dtd">
<!-- Generated by graphviz version 2.43.0 (0)
 -->
<!-- Title: PaidUserActivity Pages: 1 -->
<svg width="1250pt" height="944pt"
 viewBox="0.00 0.00 1249.92 944.00" xmlns="http://www.w3.org/2000/svg" xmlns:xlink="http://www.w3.org/1999/xlink">
<g id="graph0" class="graph" transform="scale(1 1) rotate(0) translate(4 940)">
<title>PaidUserActivity</title>
<polygon fill="white" stroke="transparent" points="-4,4 -4,-940 1245.92,-940 1245.92,4 -4,4"/>
<text text-anchor="middle" x="620.96" y="-922.4" font-family="Times,serif" font-size="12.00">Activity Diagram – Paid User (Main Flow, Ortho Layout)</text>
<g id="clust2" class="cluster">
<title>cluster_system</title>
<path fill="none" stroke="#a7d3ff" d="M215.11,-8C215.11,-8 998.92,-8 998.92,-8 1004.92,-8 1010.92,-14 1010.92,-20 1010.92,-20 1010.92,-306 1010.92,-306 1010.92,-312 1004.92,-318 998.92,-318 998.92,-318 215.11,-318 215.11,-318 209.11,-318 203.11,-312 203.11,-306 203.11,-306 203.11,-20 203.11,-20 203.11,-14 209.11,-8 215.11,-8"/>
<text text-anchor="middle" x="607.02" y="-304.4" font-family="Times,serif" font-size="12.00">System (Hệ thống)</text>
</g>
<g id="clust1" class="cluster">
<title>cluster_user</title>
<path fill="none" stroke="#c8f7c5" d="M577.92,-360C577.92,-360 999.92,-360 999.92,-360 1005.92,-360 1011.92,-366 1011.92,-372 1011.92,-372 1011.92,-895 1011.92,-895 1011.92,-901 1005.92,-907 999.92,-907 999.92,-907 577.92,-907 577.92,-907 571.92,-907 565.92,-901 565.92,-895 565.92,-895 565.92,-372 565.92,-372 565.92,-366 571.92,-360 577.92,-360"/>
<text text-anchor="middle" x="788.92" y="-893.4" font-family="Times,serif" font-size="12.00">Paid User</text>
</g>
<g id="clust3" class="cluster">
<title>cluster_support</title>
<path fill="none" stroke="#f4c2ff" d="M1074.92,-444C1074.92,-444 1221.92,-444 1221.92,-444 1227.92,-444 1233.92,-450 1233.92,-456 1233.92,-456 1233.92,-584 1233.92,-584 1233.92,-590 1227.92,-596 1221.92,-596 1221.92,-596 1074.92,-596 1074.92,-596 1068.92,-596 1062.92,-590 1062.92,-584 1062.92,-584 1062.92,-456 1062.92,-456 1062.92,-450 1068.92,-444 1074.92,-444"/>
<text text-anchor="middle" x="1148.42" y="-582.4" font-family="Times,serif" font-size="12.00">Support / Class Context</text>
</g>
<!-- Start -->
<g id="node1" class="node">
<title>Start</title>
<ellipse fill="lightgrey" stroke="black" cx="290.11" cy="-711" rx="9" ry="9"/>
</g>
<!-- U0 -->
<g id="node3" class="node">
<title>U0</title>
<path fill="none" stroke="black" d="M725.92,-799C725.92,-799 615.92,-799 615.92,-799 609.92,-799 603.92,-793 603.92,-787 603.92,-787 603.92,-775 603.92,-775 603.92,-769 609.92,-763 615.92,-763 615.92,-763 725.92,-763 725.92,-763 731.92,-763 737.92,-769 737.92,-775 737.92,-775 737.92,-787 737.92,-787 737.92,-793 731.92,-799 725.92,-799"/>
<text text-anchor="middle" x="670.92" y="-778.2" font-family="Times,serif" font-size="11.00">Đăng ký / Đăng nhập</text>
</g>
<!-- Start&#45;&gt;U0 -->
<g id="edge1" class="edge">
<title>Start&#45;&gt;U0</title>
<path fill="none" stroke="black" d="M299.3,-711C323.28,-711 385.92,-711 385.92,-711 385.92,-711 385.92,-781 385.92,-781 385.92,-781 593.74,-781 593.74,-781"/>
<polygon fill="black" stroke="black" points="593.74,-784.5 603.74,-781 593.74,-777.5 593.74,-784.5"/>
</g>
<!-- End -->
<g id="node2" class="node">
<title>End</title>
<ellipse fill="lightgrey" stroke="black" cx="919.42" cy="-339" rx="9" ry="9"/>
<ellipse fill="none" stroke="black" cx="919.42" cy="-339" rx="13" ry="13"/>
</g>
<!-- DPlan -->
<g id="node20" class="node">
<title>DPlan</title>
<path fill="none" stroke="black" d="M278.26,-657.14C278.26,-657.14 187.35,-642.86 187.35,-642.86 181.43,-641.93 181.43,-640.07 187.35,-639.14 187.35,-639.14 278.26,-624.86 278.26,-624.86 284.19,-623.93 296.04,-623.93 301.97,-624.86 301.97,-624.86 392.87,-639.14 392.87,-639.14 398.8,-640.07 398.8,-641.93 392.87,-642.86 392.87,-642.86 301.97,-657.14 301.97,-657.14 296.04,-658.07 284.19,-658.07 278.26,-657.14"/>
<text text-anchor="middle" x="290.11" y="-638.2" font-family="Times,serif" font-size="11.00">Đã có gói hoạt động?</text>
</g>
<!-- U0&#45;&gt;DPlan -->
<g id="edge2" class="edge">
<title>U0&#45;&gt;DPlan</title>
<path fill="none" stroke="black" d="M603.62,-772C521.35,-772 392.92,-772 392.92,-772 392.92,-772 392.92,-653.27 392.92,-653.27"/>
<polygon fill="black" stroke="black" points="396.42,-653.27 392.92,-643.27 389.42,-653.27 396.42,-653.27"/>
</g>
<!-- U1 -->
<g id="node4" class="node">
<title>U1</title>
<path fill="none" stroke="black" d="M732.92,-720C732.92,-720 608.92,-720 608.92,-720 602.92,-720 596.92,-714 596.92,-708 596.92,-708 596.92,-696 596.92,-696 596.92,-690 602.92,-684 608.92,-684 608.92,-684 732.92,-684 732.92,-684 738.92,-684 744.92,-690 744.92,-696 744.92,-696 744.92,-708 744.92,-708 744.92,-714 738.92,-720 732.92,-720"/>
<text text-anchor="middle" x="670.92" y="-699.2" font-family="Times,serif" font-size="11.00">Mua gói / Kích hoạt gói</text>
</g>
<!-- S1 -->
<g id="node12" class="node">
<title>S1</title>
<path fill="none" stroke="black" d="M332.11,-210C332.11,-210 248.11,-210 248.11,-210 242.11,-210 236.11,-204 236.11,-198 236.11,-198 236.11,-186 236.11,-186 236.11,-180 242.11,-174 248.11,-174 248.11,-174 332.11,-174 332.11,-174 338.11,-174 344.11,-180 344.11,-186 344.11,-186 344.11,-198 344.11,-198 344.11,-204 338.11,-210 332.11,-210"/>
<text text-anchor="middle" x="290.11" y="-195.2" font-family="Times,serif" font-size="11.00">Xử lý thanh toán</text>
<text text-anchor="middle" x="290.11" y="-183.2" font-family="Times,serif" font-size="11.00">&amp; kích hoạt gói</text>
</g>
<!-- U1&#45;&gt;S1 -->
<g id="edge4" class="edge">
<title>U1&#45;&gt;S1</title>
<path fill="none" stroke="black" d="M596.66,-690C557.68,-690 517.92,-690 517.92,-690 517.92,-690 517.92,-186 517.92,-186 517.92,-186 354.39,-186 354.39,-186"/>
<polygon fill="black" stroke="black" points="354.39,-182.5 344.39,-186 354.39,-189.5 354.39,-182.5"/>
</g>
<!-- U1a -->
<g id="node5" class="node">
<title>U1a</title>
<path fill="none" stroke="black" d="M735.92,-641C735.92,-641 605.92,-641 605.92,-641 599.92,-641 593.92,-635 593.92,-629 593.92,-629 593.92,-617 593.92,-617 593.92,-611 599.92,-605 605.92,-605 605.92,-605 735.92,-605 735.92,-605 741.92,-605 747.92,-611 747.92,-617 747.92,-617 747.92,-629 747.92,-629 747.92,-635 741.92,-641 735.92,-641"/>
<text text-anchor="middle" x="670.92" y="-626.2" font-family="Times,serif" font-size="11.00">Quản lý tài khoản &amp; gói</text>
<text text-anchor="middle" x="670.92" y="-614.2" font-family="Times,serif" font-size="11.00">(bật/tắt tự động gia hạn)</text>
</g>
<!-- U2 -->
<g id="node6" class="node">
<title>U2</title>
<path fill="none" stroke="black" d="M748.42,-878C748.42,-878 593.42,-878 593.42,-878 587.42,-878 581.42,-872 581.42,-866 581.42,-866 581.42,-854 581.42,-854 581.42,-848 587.42,-842 593.42,-842 593.42,-842 748.42,-842 748.42,-842 754.42,-842 760.42,-848 760.42,-854 760.42,-854 760.42,-866 760.42,-866 760.42,-872 754.42,-878 748.42,-878"/>
<text text-anchor="middle" x="670.92" y="-857.2" font-family="Times,serif" font-size="11.00">Nhập URL (trong hạn ngạch)</text>
</g>
<!-- S2 -->
<g id="node13" class="node">
<title>S2</title>
<path fill="none" stroke="black" d="M352.11,-289C352.11,-289 228.11,-289 228.11,-289 222.11,-289 216.11,-283 216.11,-277 216.11,-277 216.11,-265 216.11,-265 216.11,-259 222.11,-253 228.11,-253 228.11,-253 352.11,-253 352.11,-253 358.11,-253 364.11,-259 364.11,-265 364.11,-265 364.11,-277 364.11,-277 364.11,-283 358.11,-289 352.11,-289"/>
<text text-anchor="middle" x="290.11" y="-268.2" font-family="Times,serif" font-size="11.00">Kiểm tra hạn ngạch gói</text>
</g>
<!-- U2&#45;&gt;S2 -->
<g id="edge7" class="edge">
<title>U2&#45;&gt;S2</title>
<path fill="none" stroke="black" d="M581.38,-860C524.65,-860 461.92,-860 461.92,-860 461.92,-860 461.92,-268 461.92,-268 461.92,-268 374.47,-268 374.47,-268"/>
<polygon fill="black" stroke="black" points="374.47,-264.5 364.47,-268 374.47,-271.5 374.47,-264.5"/>
</g>
<!-- U3 -->
<g id="node7" class="node">
<title>U3</title>
<path fill="none" stroke="black" d="M707.92,-483C707.92,-483 633.92,-483 633.92,-483 627.92,-483 621.92,-477 621.92,-471 621.92,-471 621.92,-459 621.92,-459 621.92,-453 627.92,-447 633.92,-447 633.92,-447 707.92,-447 707.92,-447 713.92,-447 719.92,-453 719.92,-459 719.92,-459 719.92,-471 719.92,-471 719.92,-477 713.92,-483 707.92,-483"/>
<text text-anchor="middle" x="670.92" y="-462.2" font-family="Times,serif" font-size="11.00">Tải báo cáo AI</text>
</g>
<!-- U3&#45;&gt;End -->
<g id="edge17" class="edge">
<title>U3&#45;&gt;End</title>
<path fill="none" stroke="black" d="M720.11,-475.25C792.68,-475.25 919.92,-475.25 919.92,-475.25 919.92,-475.25 919.92,-362.06 919.92,-362.06"/>
<polygon fill="black" stroke="black" points="923.42,-362.06 919.92,-352.06 916.42,-362.06 923.42,-362.06"/>
</g>
<!-- U4 -->
<g id="node8" class="node">
<title>U4</title>
<path fill="none" stroke="black" d="M753.92,-562C753.92,-562 587.92,-562 587.92,-562 581.92,-562 575.92,-556 575.92,-550 575.92,-550 575.92,-538 575.92,-538 575.92,-532 581.92,-526 587.92,-526 587.92,-526 753.92,-526 753.92,-526 759.92,-526 765.92,-532 765.92,-538 765.92,-538 765.92,-550 765.92,-550 765.92,-556 759.92,-562 753.92,-562"/>
<text text-anchor="middle" x="670.92" y="-547.2" font-family="Times,serif" font-size="11.00">Xem dashboard sử dụng</text>
<text text-anchor="middle" x="670.92" y="-535.2" font-family="Times,serif" font-size="11.00">(URL đã crawl, báo cáo đã tải)</text>
</g>
<!-- U5 -->
<g id="node9" class="node">
<title>U5</title>
<path fill="none" stroke="black" d="M973.92,-610C973.92,-610 864.92,-610 864.92,-610 858.92,-610 852.92,-604 852.92,-598 852.92,-598 852.92,-586 852.92,-586 852.92,-580 858.92,-574 864.92,-574 864.92,-574 973.92,-574 973.92,-574 979.92,-574 985.92,-580 985.92,-586 985.92,-586 985.92,-598 985.92,-598 985.92,-604 979.92,-610 973.92,-610"/>
<text text-anchor="middle" x="919.42" y="-595.2" font-family="Times,serif" font-size="11.00">Quản lý API (nếu có)</text>
<text text-anchor="middle" x="919.42" y="-583.2" font-family="Times,serif" font-size="11.00">(tạo/thu hồi token)</text>
</g>
<!-- U4&#45;&gt;U5 -->
<g id="edge15" class="edge">
<title>U4&#45;&gt;U5</title>
<path fill="none" stroke="black" d="M754.92,-562.24C754.92,-574.9 754.92,-589.5 754.92,-589.5 754.92,-589.5 842.51,-589.5 842.51,-589.5"/>
<polygon fill="black" stroke="black" points="842.51,-593 852.51,-589.5 842.51,-586 842.51,-593"/>
</g>
<!-- UChat -->
<g id="node11" class="node">
<title>UChat</title>
<polygon fill="none" stroke="black" stroke-dasharray="5,2" points="1003.92,-531 834.92,-531 834.92,-495 1003.92,-495 1003.92,-531"/>
<text text-anchor="middle" x="919.42" y="-516.2" font-family="Times,serif" font-size="11.00">Chat trực tiếp</text>
<text text-anchor="middle" x="919.42" y="-504.2" font-family="Times,serif" font-size="11.00">(User ↔ Support / GV / SV)</text>
</g>
<!-- U4&#45;&gt;UChat -->
<g id="edge18" class="edge">
<title>U4&#45;&gt;UChat</title>
<path fill="none" stroke="black" stroke-dasharray="5,2" d="M766.02,-546.5C806.22,-546.5 843.92,-546.5 843.92,-546.5 843.92,-546.5 843.92,-541.32 843.92,-541.32"/>
<polygon fill="black" stroke="black" points="847.42,-541.32 843.92,-531.32 840.42,-541.32 847.42,-541.32"/>
</g>
<!-- U6 -->
<g id="node10" class="node">
<title>U6</title>
<path fill="none" stroke="black" d="M755.92,-404C755.92,-404 585.92,-404 585.92,-404 579.92,-404 573.92,-398 573.92,-392 573.92,-392 573.92,-380 573.92,-380 573.92,-374 579.92,-368 585.92,-368 585.92,-368 755.92,-368 755.92,-368 761.92,-368 767.92,-374 767.92,-380 767.92,-380 767.92,-392 767.92,-392 767.92,-398 761.92,-404 755.92,-404"/>
<text text-anchor="middle" x="670.92" y="-389.2" font-family="Times,serif" font-size="11.00">Nhận THÔNG BÁO dịch vụ</text>
<text text-anchor="middle" x="670.92" y="-377.2" font-family="Times,serif" font-size="11.00">(hạn mức, hết hạn, khuyến mãi)</text>
</g>
<!-- Sp1 -->
<g id="node18" class="node">
<title>Sp1</title>
<path fill="none" stroke="black" d="M1208.92,-567C1208.92,-567 1087.92,-567 1087.92,-567 1081.92,-567 1075.92,-561 1075.92,-555 1075.92,-555 1075.92,-543 1075.92,-543 1075.92,-537 1081.92,-531 1087.92,-531 1087.92,-531 1208.92,-531 1208.92,-531 1214.92,-531 1220.92,-537 1220.92,-543 1220.92,-543 1220.92,-555 1220.92,-555 1220.92,-561 1214.92,-567 1208.92,-567"/>
<text text-anchor="middle" x="1148.42" y="-546.2" font-family="Times,serif" font-size="11.00">Support tiếp nhận chat</text>
</g>
<!-- UChat&#45;&gt;Sp1 -->
<g id="edge19" class="edge">
<title>UChat&#45;&gt;Sp1</title>
<path fill="none" stroke="black" stroke-dasharray="5,2" d="M994.92,-531.21C994.92,-542.26 994.92,-554.25 994.92,-554.25 994.92,-554.25 1065.72,-554.25 1065.72,-554.25"/>
<polygon fill="black" stroke="black" points="1065.72,-557.75 1075.72,-554.25 1065.72,-550.75 1065.72,-557.75"/>
</g>
<!-- Ctx1 -->
<g id="node19" class="node">
<title>Ctx1</title>
<path fill="none" stroke="black" d="M1213.92,-488C1213.92,-488 1082.92,-488 1082.92,-488 1076.92,-488 1070.92,-482 1070.92,-476 1070.92,-476 1070.92,-464 1070.92,-464 1070.92,-458 1076.92,-452 1082.92,-452 1082.92,-452 1213.92,-452 1213.92,-452 1219.92,-452 1225.92,-458 1225.92,-464 1225.92,-464 1225.92,-476 1225.92,-476 1225.92,-482 1219.92,-488 1213.92,-488"/>
<text text-anchor="middle" x="1148.42" y="-473.2" font-family="Times,serif" font-size="11.00">(Nếu cùng lớp)</text>
<text text-anchor="middle" x="1148.42" y="-461.2" font-family="Times,serif" font-size="11.00">GV/SV trao đổi qua Chat</text>
</g>
<!-- UChat&#45;&gt;Ctx1 -->
<g id="edge20" class="edge">
<title>UChat&#45;&gt;Ctx1</title>
<path fill="none" stroke="black" stroke-dasharray="5,2" d="M967.92,-494.97C967.92,-479.52 967.92,-459.75 967.92,-459.75 967.92,-459.75 1060.82,-459.75 1060.82,-459.75"/>
<polygon fill="black" stroke="black" points="1060.82,-463.25 1070.82,-459.75 1060.82,-456.25 1060.82,-463.25"/>
</g>
<!-- S1&#45;&gt;U1a -->
<g id="edge5" class="edge">
<title>S1&#45;&gt;U1a</title>
<path fill="none" stroke="black" d="M344.17,-198C366.79,-198 387.92,-198 387.92,-198 387.92,-198 387.92,-614 387.92,-614 387.92,-614 583.59,-614 583.59,-614"/>
<polygon fill="black" stroke="black" points="583.59,-617.5 593.59,-614 583.59,-610.5 583.59,-617.5"/>
</g>
<!-- DQuota -->
<g id="node21" class="node">
<title>DQuota</title>
<path fill="none" stroke="black" d="M278.35,-796.62C278.35,-796.62 212.79,-783.38 212.79,-783.38 206.91,-782.19 206.91,-779.81 212.79,-778.62 212.79,-778.62 278.35,-765.38 278.35,-765.38 284.23,-764.19 295.99,-764.19 301.88,-765.38 301.88,-765.38 367.44,-778.62 367.44,-778.62 373.32,-779.81 373.32,-782.19 367.44,-783.38 367.44,-783.38 301.88,-796.62 301.88,-796.62 295.99,-797.81 284.23,-797.81 278.35,-796.62"/>
<text text-anchor="middle" x="290.11" y="-778.2" font-family="Times,serif" font-size="11.00">Còn hạn ngạch?</text>
</g>
<!-- S2&#45;&gt;DQuota -->
<g id="edge8" class="edge">
<title>S2&#45;&gt;DQuota</title>
<path fill="none" stroke="black" d="M215.98,-271C188.51,-271 163.92,-271 163.92,-271 163.92,-271 163.92,-775 163.92,-775 163.92,-775 220.71,-775 220.71,-775"/>
<polygon fill="black" stroke="black" points="220.71,-778.5 230.71,-775 220.71,-771.5 220.71,-778.5"/>
</g>
<!-- S3 -->
<g id="node14" class="node">
<title>S3</title>
<path fill="none" stroke="black" d="M324.11,-52C324.11,-52 256.11,-52 256.11,-52 250.11,-52 244.11,-46 244.11,-40 244.11,-40 244.11,-28 244.11,-28 244.11,-22 250.11,-16 256.11,-16 256.11,-16 324.11,-16 324.11,-16 330.11,-16 336.11,-22 336.11,-28 336.11,-28 336.11,-40 336.11,-40 336.11,-46 330.11,-52 324.11,-52"/>
<text text-anchor="middle" x="290.11" y="-31.2" font-family="Times,serif" font-size="11.00">Chạy crawler</text>
</g>
<!-- S4 -->
<g id="node15" class="node">
<title>S4</title>
<path fill="none" stroke="black" d="M711.42,-283C711.42,-283 630.42,-283 630.42,-283 624.42,-283 618.42,-277 618.42,-271 618.42,-271 618.42,-259 618.42,-259 618.42,-253 624.42,-247 630.42,-247 630.42,-247 711.42,-247 711.42,-247 717.42,-247 723.42,-253 723.42,-259 723.42,-259 723.42,-271 723.42,-271 723.42,-277 717.42,-283 711.42,-283"/>
<text text-anchor="middle" x="670.92" y="-268.2" font-family="Times,serif" font-size="11.00">Sinh báo cáo AI</text>
<text text-anchor="middle" x="670.92" y="-256.2" font-family="Times,serif" font-size="11.00">&amp; lưu lịch sử</text>
</g>
<!-- S3&#45;&gt;S4 -->
<g id="edge11" class="edge">
<title>S3&#45;&gt;S4</title>
<path fill="none" stroke="black" d="M336.43,-34C437.91,-34 670.92,-34 670.92,-34 670.92,-34 670.92,-236.87 670.92,-236.87"/>
<polygon fill="black" stroke="black" points="667.42,-236.87 670.92,-246.87 674.42,-236.87 667.42,-236.87"/>
</g>
<!-- S4&#45;&gt;U3 -->
<g id="edge12" class="edge">
<title>S4&#45;&gt;U3</title>
<path fill="none" stroke="black" d="M723.55,-274C755.8,-274 790.92,-274 790.92,-274 790.92,-274 790.92,-467.5 790.92,-467.5 790.92,-467.5 730.07,-467.5 730.07,-467.5"/>
<polygon fill="black" stroke="black" points="730.07,-464 720.07,-467.5 730.07,-471 730.07,-464"/>
</g>
<!-- S6 -->
<g id="node17" class="node">
<title>S6</title>
<path fill="none" stroke="black" d="M990.92,-283C990.92,-283 847.92,-283 847.92,-283 841.92,-283 835.92,-277 835.92,-271 835.92,-271 835.92,-259 835.92,-259 835.92,-253 841.92,-247 847.92,-247 847.92,-247 990.92,-247 990.92,-247 996.92,-247 1002.92,-253 1002.92,-259 1002.92,-259 1002.92,-271 1002.92,-271 1002.92,-277 996.92,-283 990.92,-283"/>
<text text-anchor="middle" x="919.42" y="-268.2" font-family="Times,serif" font-size="11.00">Cập nhật thống kê sử dụng</text>
<text text-anchor="middle" x="919.42" y="-256.2" font-family="Times,serif" font-size="11.00">&amp; hiển thị dashboard</text>
</g>
<!-- S4&#45;&gt;S6 -->
<g id="edge13" class="edge">
<title>S4&#45;&gt;S6</title>
<path fill="none" stroke="black" d="M723.62,-256C723.62,-256 825.51,-256 825.51,-256"/>
<polygon fill="black" stroke="black" points="825.51,-259.5 835.51,-256 825.51,-252.5 825.51,-259.5"/>
</g>
<!-- S5 -->
<g id="node16" class="node">
<title>S5</title>
<path fill="none" stroke="black" d="M357.11,-131C357.11,-131 223.11,-131 223.11,-131 217.11,-131 211.11,-125 211.11,-119 211.11,-119 211.11,-107 211.11,-107 211.11,-101 217.11,-95 223.11,-95 223.11,-95 357.11,-95 357.11,-95 363.11,-95 369.11,-101 369.11,-107 369.11,-107 369.11,-119 369.11,-119 369.11,-125 363.11,-131 357.11,-131"/>
<text text-anchor="middle" x="290.11" y="-116.2" font-family="Times,serif" font-size="11.00">Gửi THÔNG BÁO dịch vụ</text>
<text text-anchor="middle" x="290.11" y="-104.2" font-family="Times,serif" font-size="11.00">(kênh thông báo riêng)</text>
</g>
<!-- S5&#45;&gt;U6 -->
<g id="edge16" class="edge">
<title>S5&#45;&gt;U6</title>
<path fill="none" stroke="black" d="M369.12,-113C460.03,-113 596.92,-113 596.92,-113 596.92,-113 596.92,-357.66 596.92,-357.66"/>
<polygon fill="black" stroke="black" points="593.42,-357.66 596.92,-367.66 600.42,-357.66 593.42,-357.66"/>
</g>
<!-- S6&#45;&gt;U4 -->
<g id="edge14" class="edge">
<title>S6&#45;&gt;U4</title>
<path fill="none" stroke="black" d="M835.77,-265C822.43,-265 812.92,-265 812.92,-265 812.92,-265 812.92,-538.75 812.92,-538.75 812.92,-538.75 776.03,-538.75 776.03,-538.75"/>
<polygon fill="black" stroke="black" points="776.03,-535.25 766.03,-538.75 776.03,-542.25 776.03,-535.25"/>
</g>
<!-- DPlan&#45;&gt;U1 -->
<g id="edge3" class="edge">
<title>DPlan&#45;&gt;U1</title>
<path fill="none" stroke="black" d="M398.92,-641.95C398.92,-649.26 398.92,-696 398.92,-696 398.92,-696 586.59,-696 586.59,-696"/>
<polygon fill="black" stroke="black" points="586.59,-699.5 596.59,-696 586.59,-692.5 586.59,-699.5"/>
<text text-anchor="middle" x="489.42" y="-627" font-family="Times,serif" font-size="10.00">Chưa</text>
</g>
<!-- DPlan&#45;&gt;U2 -->
<g id="edge6" class="edge">
<title>DPlan&#45;&gt;U2</title>
<path fill="none" stroke="black" d="M347.56,-650C434.62,-650 589.92,-650 589.92,-650 589.92,-650 589.92,-831.73 589.92,-831.73"/>
<polygon fill="black" stroke="black" points="586.42,-831.73 589.92,-841.73 593.42,-831.73 586.42,-831.73"/>
<text text-anchor="middle" x="489.42" y="-833" font-family="Times,serif" font-size="10.00">Rồi</text>
</g>
<!-- DQuota&#45;&gt;U2 -->
<g id="edge9" class="edge">
<title>DQuota&#45;&gt;U2</title>
<path fill="none" stroke="black" d="M334.72,-790C417.36,-790 585.92,-790 585.92,-790 585.92,-790 585.92,-831.97 585.92,-831.97"/>
<polygon fill="black" stroke="black" points="582.42,-831.97 585.92,-841.97 589.42,-831.97 582.42,-831.97"/>
<text text-anchor="middle" x="489.42" y="-903" font-family="Times,serif" font-size="10.00">Hết ngạch</text>
<text text-anchor="middle" x="489.42" y="-892" font-family="Times,serif" font-size="10.00">(Nâng gói/đợi reset)</text>
</g>
<!-- DQuota&#45;&gt;S3 -->
<g id="edge10" class="edge">
<title>DQuota&#45;&gt;S3</title>
<path fill="none" stroke="black" d="M230.71,-787C193.25,-787 151.92,-787 151.92,-787 151.92,-787 151.92,-34 151.92,-34 151.92,-34 234.1,-34 234.1,-34"/>
<polygon fill="black" stroke="black" points="234.1,-37.5 244.1,-34 234.1,-30.5 234.1,-37.5"/>
<text text-anchor="middle" x="114.81" y="-390.5" font-family="Times,serif" font-size="10.00">Còn ngạch</text>
</g>
</g>
</svg>
