<?xml version="1.0" encoding="UTF-8" standalone="no"?>
<!DOCTYPE svg PUBLIC "-//W3C//DTD SVG 1.1//EN"
 "http://www.w3.org/Graphics/SVG/1.1/DTD/svg11.dtd">
<!-- Generated by graphviz version 2.43.0 (0)
 -->
<!-- Title: StudentActivity Pages: 1 -->
<svg width="1182pt" height="705pt"
 viewBox="0.00 0.00 1181.89 705.00" xmlns="http://www.w3.org/2000/svg" xmlns:xlink="http://www.w3.org/1999/xlink">
<g id="graph0" class="graph" transform="scale(1 1) rotate(0) translate(4 701)">
<title>StudentActivity</title>
<polygon fill="white" stroke="transparent" points="-4,4 -4,-701 1177.89,-701 1177.89,4 -4,4"/>
<text text-anchor="middle" x="586.94" y="-683.4" font-family="Times,serif" font-size="12.00">Activity Diagram – Student (Main Flow, Ortho Layout)</text>
<g id="clust1" class="cluster">
<title>cluster_student</title>
<path fill="none" stroke="#fff3a6" d="M549.39,-247C549.39,-247 1153.89,-247 1153.89,-247 1159.89,-247 1165.89,-253 1165.89,-259 1165.89,-259 1165.89,-545 1165.89,-545 1165.89,-551 1159.89,-557 1153.89,-557 1153.89,-557 549.39,-557 549.39,-557 543.39,-557 537.39,-551 537.39,-545 537.39,-545 537.39,-259 537.39,-259 537.39,-253 543.39,-247 549.39,-247"/>
<text text-anchor="middle" x="851.64" y="-543.4" font-family="Times,serif" font-size="12.00">Student</text>
</g>
<g id="clust2" class="cluster">
<title>cluster_system</title>
<path fill="none" stroke="#a7d3ff" d="M524.89,-8C524.89,-8 937.39,-8 937.39,-8 943.39,-8 949.39,-14 949.39,-20 949.39,-20 949.39,-227 949.39,-227 949.39,-233 943.39,-239 937.39,-239 937.39,-239 524.89,-239 524.89,-239 518.89,-239 512.89,-233 512.89,-227 512.89,-227 512.89,-20 512.89,-20 512.89,-14 518.89,-8 524.89,-8"/>
<text text-anchor="middle" x="731.14" y="-225.4" font-family="Times,serif" font-size="12.00">System (Hệ thống)</text>
</g>
<g id="clust3" class="cluster">
<title>cluster_lecturer</title>
<path fill="none" stroke="#d3d3d3" d="M69,-49C69,-49 175,-49 175,-49 181,-49 187,-55 187,-61 187,-61 187,-110 187,-110 187,-116 181,-122 175,-122 175,-122 69,-122 69,-122 63,-122 57,-116 57,-110 57,-110 57,-61 57,-61 57,-55 63,-49 69,-49"/>
<text text-anchor="middle" x="122" y="-108.4" font-family="Times,serif" font-size="12.00">Lecturer</text>
</g>
<g id="clust4" class="cluster">
<title>cluster_staff</title>
<path fill="none" stroke="#f4c2ff" d="M20,-307C20,-307 224,-307 224,-307 230,-307 236,-313 236,-319 236,-319 236,-368 236,-368 236,-374 230,-380 224,-380 224,-380 20,-380 20,-380 14,-380 8,-374 8,-368 8,-368 8,-319 8,-319 8,-313 14,-307 20,-307"/>
<text text-anchor="middle" x="122" y="-366.4" font-family="Times,serif" font-size="12.00">Staff</text>
</g>
<!-- Start -->
<g id="node1" class="node">
<title>Start</title>
<ellipse fill="lightgrey" stroke="black" cx="374.44" cy="-352" rx="9" ry="9"/>
</g>
<!-- StLogin -->
<g id="node3" class="node">
<title>StLogin</title>
<path fill="none" stroke="black" d="M682.39,-370C682.39,-370 557.39,-370 557.39,-370 551.39,-370 545.39,-364 545.39,-358 545.39,-358 545.39,-346 545.39,-346 545.39,-340 551.39,-334 557.39,-334 557.39,-334 682.39,-334 682.39,-334 688.39,-334 694.39,-340 694.39,-346 694.39,-346 694.39,-358 694.39,-358 694.39,-364 688.39,-370 682.39,-370"/>
<text text-anchor="middle" x="619.89" y="-355.2" font-family="Times,serif" font-size="11.00">Đăng nhập hệ thống</text>
<text text-anchor="middle" x="619.89" y="-343.2" font-family="Times,serif" font-size="11.00">(tài khoản do Staff cấp)</text>
</g>
<!-- Start&#45;&gt;StLogin -->
<g id="edge1" class="edge">
<title>Start&#45;&gt;StLogin</title>
<path fill="none" stroke="black" d="M383.47,-352C383.47,-352 535.2,-352 535.2,-352"/>
<polygon fill="black" stroke="black" points="535.2,-355.5 545.2,-352 535.2,-348.5 535.2,-355.5"/>
</g>
<!-- End -->
<g id="node2" class="node">
<title>End</title>
<ellipse fill="lightgrey" stroke="black" cx="862.89" cy="-663" rx="9" ry="9"/>
<ellipse fill="none" stroke="black" cx="862.89" cy="-663" rx="13" ry="13"/>
</g>
<!-- StJoin -->
<g id="node4" class="node">
<title>StJoin</title>
<path fill="none" stroke="black" d="M908.89,-370C908.89,-370 816.89,-370 816.89,-370 810.89,-370 804.89,-364 804.89,-358 804.89,-358 804.89,-346 804.89,-346 804.89,-340 810.89,-334 816.89,-334 816.89,-334 908.89,-334 908.89,-334 914.89,-334 920.89,-340 920.89,-346 920.89,-346 920.89,-358 920.89,-358 920.89,-364 914.89,-370 908.89,-370"/>
<text text-anchor="middle" x="862.89" y="-355.2" font-family="Times,serif" font-size="11.00">Tham gia lớp</text>
<text text-anchor="middle" x="862.89" y="-343.2" font-family="Times,serif" font-size="11.00">(bằng mã/lời mời)</text>
</g>
<!-- StLogin&#45;&gt;StJoin -->
<g id="edge2" class="edge">
<title>StLogin&#45;&gt;StJoin</title>
<path fill="none" stroke="black" d="M694.45,-358C694.45,-358 794.67,-358 794.67,-358"/>
<polygon fill="black" stroke="black" points="794.67,-361.5 804.67,-358 794.67,-354.5 794.67,-361.5"/>
</g>
<!-- SysEnroll -->
<g id="node12" class="node">
<title>SysEnroll</title>
<path fill="none" stroke="black" d="M678.39,-210C678.39,-210 561.39,-210 561.39,-210 555.39,-210 549.39,-204 549.39,-198 549.39,-198 549.39,-186 549.39,-186 549.39,-180 555.39,-174 561.39,-174 561.39,-174 678.39,-174 678.39,-174 684.39,-174 690.39,-180 690.39,-186 690.39,-186 690.39,-198 690.39,-198 690.39,-204 684.39,-210 678.39,-210"/>
<text text-anchor="middle" x="619.89" y="-195.2" font-family="Times,serif" font-size="11.00">Ghi nhận tham gia lớp</text>
<text text-anchor="middle" x="619.89" y="-183.2" font-family="Times,serif" font-size="11.00">(enrollment)</text>
</g>
<!-- StJoin&#45;&gt;SysEnroll -->
<g id="edge3" class="edge">
<title>StJoin&#45;&gt;SysEnroll</title>
<path fill="none" stroke="black" d="M804.72,-346C782.72,-346 762.89,-346 762.89,-346 762.89,-346 762.89,-201 762.89,-201 762.89,-201 700.55,-201 700.55,-201"/>
<polygon fill="black" stroke="black" points="700.55,-197.5 690.55,-201 700.55,-204.5 700.55,-197.5"/>
</g>
<!-- StView -->
<g id="node5" class="node">
<title>StView</title>
<path fill="none" stroke="black" d="M671.89,-449C671.89,-449 567.89,-449 567.89,-449 561.89,-449 555.89,-443 555.89,-437 555.89,-437 555.89,-425 555.89,-425 555.89,-419 561.89,-413 567.89,-413 567.89,-413 671.89,-413 671.89,-413 677.89,-413 683.89,-419 683.89,-425 683.89,-425 683.89,-437 683.89,-437 683.89,-443 677.89,-449 671.89,-449"/>
<text text-anchor="middle" x="619.89" y="-434.2" font-family="Times,serif" font-size="11.00">Xem chi tiết bài tập</text>
<text text-anchor="middle" x="619.89" y="-422.2" font-family="Times,serif" font-size="11.00">+ deadline</text>
</g>
<!-- StMyDeadline -->
<g id="node10" class="node">
<title>StMyDeadline</title>
<path fill="none" stroke="black" d="M928.39,-449C928.39,-449 797.39,-449 797.39,-449 791.39,-449 785.39,-443 785.39,-437 785.39,-437 785.39,-425 785.39,-425 785.39,-419 791.39,-413 797.39,-413 797.39,-413 928.39,-413 928.39,-413 934.39,-413 940.39,-419 940.39,-425 940.39,-425 940.39,-437 940.39,-437 940.39,-443 934.39,-449 928.39,-449"/>
<text text-anchor="middle" x="862.89" y="-434.2" font-family="Times,serif" font-size="11.00">Quản lý hạn nộp cá nhân</text>
<text text-anchor="middle" x="862.89" y="-422.2" font-family="Times,serif" font-size="11.00">(nhắc hạn)</text>
</g>
<!-- StView&#45;&gt;StMyDeadline -->
<g id="edge10" class="edge">
<title>StView&#45;&gt;StMyDeadline</title>
<path fill="none" stroke="black" d="M684.05,-427.4C684.05,-427.4 775.36,-427.4 775.36,-427.4"/>
<polygon fill="black" stroke="black" points="775.36,-430.9 785.36,-427.4 775.36,-423.9 775.36,-430.9"/>
</g>
<!-- StChat -->
<g id="node11" class="node">
<title>StChat</title>
<polygon fill="none" stroke="black" stroke-dasharray="5,2" points="932.89,-528 792.89,-528 792.89,-492 932.89,-492 932.89,-528"/>
<text text-anchor="middle" x="862.89" y="-513.2" font-family="Times,serif" font-size="11.00">Chat trực tiếp</text>
<text text-anchor="middle" x="862.89" y="-501.2" font-family="Times,serif" font-size="11.00">(SV ↔ GV / SV / User)</text>
</g>
<!-- StView&#45;&gt;StChat -->
<g id="edge20" class="edge">
<title>StView&#45;&gt;StChat</title>
<path fill="none" stroke="black" stroke-dasharray="5,2" d="M684.08,-434.6C699.13,-434.6 710.89,-434.6 710.89,-434.6 710.89,-434.6 710.89,-510 710.89,-510 710.89,-510 782.67,-510 782.67,-510"/>
<polygon fill="black" stroke="black" points="782.67,-513.5 792.67,-510 782.67,-506.5 782.67,-513.5"/>
</g>
<!-- DGroup -->
<g id="node18" class="node">
<title>DGroup</title>
<path fill="none" stroke="black" d="M851.16,-604.46C851.16,-604.46 791.43,-591.54 791.43,-591.54 785.57,-590.27 785.57,-587.73 791.43,-586.46 791.43,-586.46 851.16,-573.54 851.16,-573.54 857.02,-572.27 868.75,-572.27 874.62,-573.54 874.62,-573.54 934.34,-586.46 934.34,-586.46 940.21,-587.73 940.21,-590.27 934.34,-591.54 934.34,-591.54 874.62,-604.46 874.62,-604.46 868.75,-605.73 857.02,-605.73 851.16,-604.46"/>
<text text-anchor="middle" x="862.89" y="-586.2" font-family="Times,serif" font-size="11.00">Bài tập nhóm?</text>
</g>
<!-- StView&#45;&gt;DGroup -->
<g id="edge6" class="edge">
<title>StView&#45;&gt;DGroup</title>
<path fill="none" stroke="black" d="M684.05,-441.8C694.98,-441.8 702.89,-441.8 702.89,-441.8 702.89,-441.8 702.89,-595 702.89,-595 702.89,-595 797.38,-595 797.38,-595"/>
<polygon fill="black" stroke="black" points="797.38,-598.5 807.38,-595 797.38,-591.5 797.38,-598.5"/>
</g>
<!-- StGroup -->
<g id="node6" class="node">
<title>StGroup</title>
<path fill="none" stroke="black" d="M936.89,-291C936.89,-291 788.89,-291 788.89,-291 782.89,-291 776.89,-285 776.89,-279 776.89,-279 776.89,-267 776.89,-267 776.89,-261 782.89,-255 788.89,-255 788.89,-255 936.89,-255 936.89,-255 942.89,-255 948.89,-261 948.89,-267 948.89,-267 948.89,-279 948.89,-279 948.89,-285 942.89,-291 936.89,-291"/>
<text text-anchor="middle" x="862.89" y="-276.2" font-family="Times,serif" font-size="11.00">(Nếu là bài nhóm)</text>
<text text-anchor="middle" x="862.89" y="-264.2" font-family="Times,serif" font-size="11.00">Tham gia nhóm / phân công</text>
</g>
<!-- StPrep -->
<g id="node7" class="node">
<title>StPrep</title>
<path fill="none" stroke="black" d="M1145.89,-370C1145.89,-370 1018.89,-370 1018.89,-370 1012.89,-370 1006.89,-364 1006.89,-358 1006.89,-358 1006.89,-346 1006.89,-346 1006.89,-340 1012.89,-334 1018.89,-334 1018.89,-334 1145.89,-334 1145.89,-334 1151.89,-334 1157.89,-340 1157.89,-346 1157.89,-346 1157.89,-358 1157.89,-358 1157.89,-364 1151.89,-370 1145.89,-370"/>
<text text-anchor="middle" x="1082.39" y="-349.2" font-family="Times,serif" font-size="11.00">Chuẩn bị &amp; nộp báo cáo</text>
</g>
<!-- StGroup&#45;&gt;StPrep -->
<g id="edge9" class="edge">
<title>StGroup&#45;&gt;StPrep</title>
<path fill="none" stroke="black" d="M933.89,-291.04C933.89,-312.66 933.89,-346 933.89,-346 933.89,-346 996.83,-346 996.83,-346"/>
<polygon fill="black" stroke="black" points="996.83,-349.5 1006.83,-346 996.83,-342.5 996.83,-349.5"/>
</g>
<!-- SysUpdate -->
<g id="node14" class="node">
<title>SysUpdate</title>
<path fill="none" stroke="black" d="M704.89,-52C704.89,-52 534.89,-52 534.89,-52 528.89,-52 522.89,-46 522.89,-40 522.89,-40 522.89,-28 522.89,-28 522.89,-22 528.89,-16 534.89,-16 534.89,-16 704.89,-16 704.89,-16 710.89,-16 716.89,-22 716.89,-28 716.89,-28 716.89,-40 716.89,-40 716.89,-46 710.89,-52 704.89,-52"/>
<text text-anchor="middle" x="619.89" y="-37.2" font-family="Times,serif" font-size="11.00">Cập nhật trạng thái nộp</text>
<text text-anchor="middle" x="619.89" y="-25.2" font-family="Times,serif" font-size="11.00">(đã nộp/chờ chấm/đã chấm/sửa)</text>
</g>
<!-- StPrep&#45;&gt;SysUpdate -->
<g id="edge12" class="edge">
<title>StPrep&#45;&gt;SysUpdate</title>
<path fill="none" stroke="black" d="M1082.89,-333.99C1082.89,-266.72 1082.89,-34 1082.89,-34 1082.89,-34 726.95,-34 726.95,-34"/>
<polygon fill="black" stroke="black" points="726.95,-30.5 716.95,-34 726.95,-37.5 726.95,-30.5"/>
</g>
<!-- StRevise -->
<g id="node8" class="node">
<title>StRevise</title>
<path fill="none" stroke="black" d="M682.39,-291C682.39,-291 557.39,-291 557.39,-291 551.39,-291 545.39,-285 545.39,-279 545.39,-279 545.39,-267 545.39,-267 545.39,-261 551.39,-255 557.39,-255 557.39,-255 682.39,-255 682.39,-255 688.39,-255 694.39,-261 694.39,-267 694.39,-267 694.39,-279 694.39,-279 694.39,-285 688.39,-291 682.39,-291"/>
<text text-anchor="middle" x="619.89" y="-270.2" font-family="Times,serif" font-size="11.00">Sửa &amp; nộp lại (nếu cần)</text>
</g>
<!-- StRevise&#45;&gt;SysUpdate -->
<g id="edge16" class="edge">
<title>StRevise&#45;&gt;SysUpdate</title>
<path fill="none" stroke="black" d="M545.06,-267C517.05,-267 491.89,-267 491.89,-267 491.89,-267 491.89,-40 491.89,-40 491.89,-40 512.87,-40 512.87,-40"/>
<polygon fill="black" stroke="black" points="512.87,-43.5 522.87,-40 512.87,-36.5 512.87,-43.5"/>
</g>
<!-- StCheck -->
<g id="node9" class="node">
<title>StCheck</title>
<path fill="none" stroke="black" d="M677.89,-528C677.89,-528 561.89,-528 561.89,-528 555.89,-528 549.89,-522 549.89,-516 549.89,-516 549.89,-504 549.89,-504 549.89,-498 555.89,-492 561.89,-492 561.89,-492 677.89,-492 677.89,-492 683.89,-492 689.89,-498 689.89,-504 689.89,-504 689.89,-516 689.89,-516 689.89,-522 683.89,-528 677.89,-528"/>
<text text-anchor="middle" x="619.89" y="-507.2" font-family="Times,serif" font-size="11.00">Xem điểm &amp; feedback</text>
</g>
<!-- StCheck&#45;&gt;End -->
<g id="edge19" class="edge">
<title>StCheck&#45;&gt;End</title>
<path fill="none" stroke="black" d="M619.89,-528.15C619.89,-568.68 619.89,-663 619.89,-663 619.89,-663 839.82,-663 839.82,-663"/>
<polygon fill="black" stroke="black" points="839.82,-666.5 849.82,-663 839.82,-659.5 839.82,-666.5"/>
</g>
<!-- StMyDeadline&#45;&gt;StPrep -->
<g id="edge11" class="edge">
<title>StMyDeadline&#45;&gt;StPrep</title>
<path fill="none" stroke="black" d="M927.89,-412.96C927.89,-391.34 927.89,-358 927.89,-358 927.89,-358 996.5,-358 996.5,-358"/>
<polygon fill="black" stroke="black" points="996.5,-361.5 1006.5,-358 996.5,-354.5 996.5,-361.5"/>
</g>
<!-- SysNotify -->
<g id="node13" class="node">
<title>SysNotify</title>
<path fill="none" stroke="black" d="M929.39,-210C929.39,-210 796.39,-210 796.39,-210 790.39,-210 784.39,-204 784.39,-198 784.39,-198 784.39,-186 784.39,-186 784.39,-180 790.39,-174 796.39,-174 796.39,-174 929.39,-174 929.39,-174 935.39,-174 941.39,-180 941.39,-186 941.39,-186 941.39,-198 941.39,-198 941.39,-204 935.39,-210 929.39,-210"/>
<text text-anchor="middle" x="862.89" y="-195.2" font-family="Times,serif" font-size="11.00">Gửi THÔNG BÁO bài tập</text>
<text text-anchor="middle" x="862.89" y="-183.2" font-family="Times,serif" font-size="11.00">(kênh thông báo riêng)</text>
</g>
<!-- SysEnroll&#45;&gt;SysNotify -->
<g id="edge4" class="edge">
<title>SysEnroll&#45;&gt;SysNotify</title>
<path fill="none" stroke="black" d="M690.5,-183C690.5,-183 773.99,-183 773.99,-183"/>
<polygon fill="black" stroke="black" points="773.99,-186.5 783.99,-183 773.99,-179.5 773.99,-186.5"/>
</g>
<!-- SysNotify&#45;&gt;StView -->
<g id="edge5" class="edge">
<title>SysNotify&#45;&gt;StView</title>
<path fill="none" stroke="black" d="M784.13,-192C757.27,-192 733.89,-192 733.89,-192 733.89,-192 733.89,-420.2 733.89,-420.2 733.89,-420.2 694.22,-420.2 694.22,-420.2"/>
<polygon fill="black" stroke="black" points="694.22,-416.7 684.22,-420.2 694.22,-423.7 694.22,-416.7"/>
</g>
<!-- LecReview -->
<g id="node16" class="node">
<title>LecReview</title>
<path fill="none" stroke="black" d="M167,-93C167,-93 77,-93 77,-93 71,-93 65,-87 65,-81 65,-81 65,-69 65,-69 65,-63 71,-57 77,-57 77,-57 167,-57 167,-57 173,-57 179,-63 179,-69 179,-69 179,-81 179,-81 179,-87 173,-93 167,-93"/>
<text text-anchor="middle" x="122" y="-72.2" font-family="Times,serif" font-size="11.00">Chấm &amp; phản hồi</text>
</g>
<!-- SysUpdate&#45;&gt;LecReview -->
<g id="edge13" class="edge">
<title>SysUpdate&#45;&gt;LecReview</title>
<path fill="none" stroke="black" d="M522.88,-28C378.24,-28 122.89,-28 122.89,-28 122.89,-28 122.89,-46.96 122.89,-46.96"/>
<polygon fill="black" stroke="black" points="119.39,-46.96 122.89,-56.96 126.39,-46.96 119.39,-46.96"/>
</g>
<!-- SysGrade -->
<g id="node15" class="node">
<title>SysGrade</title>
<path fill="none" stroke="black" d="M706.89,-131C706.89,-131 532.89,-131 532.89,-131 526.89,-131 520.89,-125 520.89,-119 520.89,-119 520.89,-107 520.89,-107 520.89,-101 526.89,-95 532.89,-95 532.89,-95 706.89,-95 706.89,-95 712.89,-95 718.89,-101 718.89,-107 718.89,-107 718.89,-119 718.89,-119 718.89,-125 712.89,-131 706.89,-131"/>
<text text-anchor="middle" x="619.89" y="-110.2" font-family="Times,serif" font-size="11.00">Cập nhật điểm &amp; trạng thái cuối</text>
</g>
<!-- SysGrade&#45;&gt;StCheck -->
<g id="edge18" class="edge">
<title>SysGrade&#45;&gt;StCheck</title>
<path fill="none" stroke="black" d="M533.89,-131.09C533.89,-208.75 533.89,-510 533.89,-510 533.89,-510 539.66,-510 539.66,-510"/>
<polygon fill="black" stroke="black" points="539.66,-513.5 549.66,-510 539.66,-506.5 539.66,-513.5"/>
</g>
<!-- DRevise -->
<g id="node19" class="node">
<title>DRevise</title>
<path fill="none" stroke="black" d="M362.69,-132.61C362.69,-132.61 297.81,-119.39 297.81,-119.39 291.94,-118.2 291.94,-115.8 297.81,-114.61 297.81,-114.61 362.69,-101.39 362.69,-101.39 368.56,-100.2 380.32,-100.2 386.2,-101.39 386.2,-101.39 451.07,-114.61 451.07,-114.61 456.95,-115.8 456.95,-118.2 451.07,-119.39 451.07,-119.39 386.2,-132.61 386.2,-132.61 380.32,-133.8 368.56,-133.8 362.69,-132.61"/>
<text text-anchor="middle" x="374.44" y="-114.2" font-family="Times,serif" font-size="11.00">Bị yêu cầu sửa?</text>
</g>
<!-- LecReview&#45;&gt;DRevise -->
<g id="edge14" class="edge">
<title>LecReview&#45;&gt;DRevise</title>
<path fill="none" stroke="black" d="M122.89,-93.06C122.89,-104.44 122.89,-117 122.89,-117 122.89,-117 275.75,-117 275.75,-117"/>
<polygon fill="black" stroke="black" points="275.75,-120.5 285.75,-117 275.75,-113.5 275.75,-120.5"/>
</g>
<!-- StaffProv -->
<g id="node17" class="node">
<title>StaffProv</title>
<path fill="none" stroke="black" d="M216,-351C216,-351 28,-351 28,-351 22,-351 16,-345 16,-339 16,-339 16,-327 16,-327 16,-321 22,-315 28,-315 28,-315 216,-315 216,-315 222,-315 228,-321 228,-327 228,-327 228,-339 228,-339 228,-345 222,-351 216,-351"/>
<text text-anchor="middle" x="122" y="-330.2" font-family="Times,serif" font-size="11.00">(Đã cấp tài khoản &amp; email cho SV)</text>
</g>
<!-- DGroup&#45;&gt;StGroup -->
<g id="edge7" class="edge">
<title>DGroup&#45;&gt;StGroup</title>
<path fill="none" stroke="black" d="M807.41,-583C778,-583 747.89,-583 747.89,-583 747.89,-583 747.89,-273 747.89,-273 747.89,-273 766.61,-273 766.61,-273"/>
<polygon fill="black" stroke="black" points="766.61,-276.5 776.61,-273 766.61,-269.5 766.61,-276.5"/>
</g>
<!-- DGroup&#45;&gt;StPrep -->
<g id="edge8" class="edge">
<title>DGroup&#45;&gt;StPrep</title>
<path fill="none" stroke="black" d="M946.37,-589C1008.61,-589 1082.89,-589 1082.89,-589 1082.89,-589 1082.89,-380.2 1082.89,-380.2"/>
<polygon fill="black" stroke="black" points="1086.39,-380.2 1082.89,-370.2 1079.39,-380.2 1086.39,-380.2"/>
</g>
<!-- DRevise&#45;&gt;StRevise -->
<g id="edge15" class="edge">
<title>DRevise&#45;&gt;StRevise</title>
<path fill="none" stroke="black" d="M423.89,-125.26C423.89,-158.27 423.89,-279 423.89,-279 423.89,-279 535.23,-279 535.23,-279"/>
<polygon fill="black" stroke="black" points="535.23,-282.5 545.23,-279 535.23,-275.5 535.23,-282.5"/>
</g>
<!-- DRevise&#45;&gt;SysGrade -->
<g id="edge17" class="edge">
<title>DRevise&#45;&gt;SysGrade</title>
<path fill="none" stroke="black" d="M453.12,-115C453.12,-115 510.53,-115 510.53,-115"/>
<polygon fill="black" stroke="black" points="510.53,-118.5 520.53,-115 510.53,-111.5 510.53,-118.5"/>
</g>
</g>
</svg>
